<?xml version="1.0" ?><svg viewBox="0 0 96 96" xmlns="http://www.w3.org/2000/svg"><style>.cls-1{fill:none;stroke:#000;stroke-miterlimit:1;stroke-width:1.5px;}</style><title/><path class="cls-1 VKgNStKj_2" d="M78,24H71.8828C71.2559,12.82,67.2773,0,42,0a5.9966,5.9966,0,0,0-6,6c0,10.8809-.1128,20.3687-8.6917,30H6a5.9966,5.9966,0,0,0-6,6V90a5.9966,5.9966,0,0,0,6,6H78A18.02,18.02,0,0,0,96,78V42A18.02,18.02,0,0,0,78,24ZM12,48H24V84H12ZM84,78a6.0078,6.0078,0,0,1-6,6H36V44.4023c9.9258-10.8867,11.6426-21.9257,11.9355-32.121C60,13.5938,60,19.5117,60,30a5.9966,5.9966,0,0,0,6,6H78a6.0078,6.0078,0,0,1,6,6Z"/><style data-made-with="vivus-instant">.VKgNStKj_0{stroke-dasharray:165 167;stroke-dashoffset:166;animation:VKgNStKj_draw_0 7200ms linear 0ms infinite,VKgNStKj_fade 7200ms linear 0ms infinite;}.VKgNStKj_1{stroke-dasharray:304 306;stroke-dashoffset:305;animation:VKgNStKj_draw_1 7200ms linear 0ms infinite,VKgNStKj_fade 7200ms linear 0ms infinite;}.VKgNStKj_2{stroke-dasharray:169 171;stroke-dashoffset:170;animation:VKgNStKj_draw_2 7200ms linear 0ms infinite,VKgNStKj_fade 7200ms linear 0ms infinite;}@keyframes VKgNStKj_draw{100%{stroke-dashoffset:0;}}@keyframes VKgNStKj_fade{0%{stroke-opacity:1;}94.44444444444444%{stroke-opacity:1;}100%{stroke-opacity:0;}}@keyframes VKgNStKj_draw_0{11.11111111111111%{stroke-dashoffset: 166}48.14814814814815%{ stroke-dashoffset: 0;}100%{ stroke-dashoffset: 0;}}@keyframes VKgNStKj_draw_1{20.37037037037037%{stroke-dashoffset: 305}57.40740740740742%{ stroke-dashoffset: 0;}100%{ stroke-dashoffset: 0;}}@keyframes VKgNStKj_draw_2{29.629629629629626%{stroke-dashoffset: 200}66.66666666666666%{ stroke-dashoffset: 0;}100%{ stroke-dashoffset: 0;}}</style></svg>