<svg xmlns="http://www.w3.org/2000/svg" viewBox="0 0 65 65" class="" style=""><defs><style>.cls-1{fill:none;stroke:#000;stroke-miterlimit:1;stroke-width:1.5px;}</style></defs><g id="Layer_2" data-name="Layer 2"><g id="Layer_1-2" data-name="Layer 1"><path class="cls-1 VKgNStKj_0" d="M47.35,5.15C43.05,9.55,43,9.75,44,14l1,4.3L35.35,28c-5.2,5.4-9.2,10.1-8.8,10.5s5.1-3.6,10.5-8.8l9.7-9.6,4.3,1c4.2,1,4.4.9,8.8-3.4,2.4-2.4,4.4-4.6,4.4-5s-2-1.2-4.5-1.8c-4.2-1.1-4.5-1.4-5.6-5.6-.6-2.5-1.4-4.5-1.8-4.5S49.75,2.75,47.35,5.15Zm10.2,7.1,3.8,1.1-3.5,3.3c-3.2,3.1-3.7,3.3-7.2,2.4-3.4-.7-4-1.3-4.7-4.7-.9-3.5-.7-4,2.4-7.2l3.3-3.5,1.1,3.8C53.65,10.55,54.45,11.35,57.55,12.25Z"></path><path class="cls-1 VKgNStKj_1" d="M17.75,12.35c-5.8,2-10.6,6.4-14,12.5-2.6,4.7-3,6.4-3,12.9,0,8.4,2,13.4,7.6,18.9s10.5,7.6,18.9,7.6c6.5,0,8.2-.4,12.9-3,9.1-5,14.1-13.4,14.1-23.4,0-6.9-2.9-15.6-4.6-13.9-.3.4.1,2.5,1,4.8,6,14.9-4.6,32-20.7,33.7a24.94,24.94,0,0,1-27.4-27.2c1.7-16.4,18.6-26.9,33.7-20.9,4,1.6,6.8,1.2,4-.7C35.35,10.65,24.45,10,17.75,12.35Z"></path><path class="cls-1 VKgNStKj_2" d="M20.65,23.15c-4.2,1.9-8.5,7.7-9.1,12.4-.7,5.4,2.5,12.5,6.9,15.2,7.2,4.4,13.9,3.8,19.8-1.9,4.2-4,5.7-8.7,4.6-14.6-1.1-5.5-2.5-4.1-1.9,1.7.4,4.4.1,5.9-1.9,8.8-3.1,4.6-8.2,7.2-13.1,6.6-13.3-1.6-17-17.8-5.7-25.4,2.9-2,4.4-2.3,8.8-1.9,5.2.6,7.2-.5,3-1.7A19.18,19.18,0,0,0,20.65,23.15Z"></path></g></g><style data-made-with="vivus-instant">.VKgNStKj_0{stroke-dasharray:165 167;stroke-dashoffset:166;animation:VKgNStKj_draw_0 7200ms linear 0ms infinite,VKgNStKj_fade 7200ms linear 0ms infinite;}.VKgNStKj_1{stroke-dasharray:304 306;stroke-dashoffset:305;animation:VKgNStKj_draw_1 7200ms linear 0ms infinite,VKgNStKj_fade 7200ms linear 0ms infinite;}.VKgNStKj_2{stroke-dasharray:169 171;stroke-dashoffset:170;animation:VKgNStKj_draw_2 7200ms linear 0ms infinite,VKgNStKj_fade 7200ms linear 0ms infinite;}@keyframes VKgNStKj_draw{100%{stroke-dashoffset:0;}}@keyframes VKgNStKj_fade{0%{stroke-opacity:1;}94.44444444444444%{stroke-opacity:1;}100%{stroke-opacity:0;}}@keyframes VKgNStKj_draw_0{11.11111111111111%{stroke-dashoffset: 166}48.14814814814815%{ stroke-dashoffset: 0;}100%{ stroke-dashoffset: 0;}}@keyframes VKgNStKj_draw_1{20.37037037037037%{stroke-dashoffset: 305}57.40740740740742%{ stroke-dashoffset: 0;}100%{ stroke-dashoffset: 0;}}@keyframes VKgNStKj_draw_2{29.629629629629626%{stroke-dashoffset: 170}66.66666666666666%{ stroke-dashoffset: 0;}100%{ stroke-dashoffset: 0;}}</style></svg>