<svg xmlns="http://www.w3.org/2000/svg" viewBox="0 0 65.69 65.77" style=""><defs><style>.cls-1{fill:none;stroke:#000;stroke-miterlimit:10;stroke-width:2px;}</style></defs><g id="Layer_2" data-name="Layer 2"><g id="Layer_1-2" data-name="Layer 1"><path class="cls-1 XSRvLwSr_0" d="M23,2.57c-10.9,3.9-17.8,11.2-21,22.1-2.6,9.2,0,21,6.6,29.1,3,3.8,3.7,1.6.6-2.4-15.7-20.6-.2-50.1,25.5-48.3,7.3.5,15.3,3.8,14.4,6.1-.5,1.3,2.2,2.6,5.8,2.6,1.7,0,1.7-.2.1-3.5s-3.3-4.6-3.3-2.6c0,.6-2.6-.2-5.7-1.7A31.26,31.26,0,0,0,23,2.57Z"></path><path class="cls-1 XSRvLwSr_1" d="M31.69,15.27c0,1.9.5,3.5,1,3.5s1-1.6,1-3.5-.4-3.5-1-3.5S31.69,13.37,31.69,15.27Z"></path><path class="cls-1 XSRvLwSr_2" d="M57.89,16a3.12,3.12,0,0,0,1.6,1.6c.7.2,1-.2.6-1.2C59.39,14.57,57.29,14.17,57.89,16Z"></path><path class="cls-1 XSRvLwSr_3" d="M22.69,16.67a4.12,4.12,0,0,0,1.5,2.1c1.6,1.4,1.8,1,.9-1.4C24.49,15.67,22.69,15.17,22.69,16.67Z"></path><path class="cls-1 XSRvLwSr_4" d="M40.29,17.37c-.9,2.2.3,3.2,1.4,1.4s1.2-3,.1-3C41.29,15.77,40.59,16.47,40.29,17.37Z"></path><path class="cls-1 XSRvLwSr_5" d="M24.49,22.37c-4.8,1.5-12.8,8-12.8,10.4,0,2.6,7.9,8.9,13.2,10.5,6.5,1.9,9.1,1.9,15.6,0,5.3-1.6,13.2-7.9,13.2-10.5s-7.9-8.9-13.2-10.5C34.19,20.47,30.69,20.47,24.49,22.37Zm16.4,1.9a23.69,23.69,0,0,1,7.8,5l3.4,3.5-3.4,3.5c-3.6,3.8-10.4,6.5-16,6.5s-12.4-2.7-16-6.5l-3.4-3.5,3.4-3.5C22.49,23.27,32,21.27,40.89,24.27Z"></path><path class="cls-1 XSRvLwSr_6" d="M29,26c-5.5,2.7-5,11.4.8,13.8,8.9,3.7,15.1-9.9,6.3-13.9C33.09,24.57,31.89,24.57,29,26Zm7.7,2.8a6.92,6.92,0,0,1,2,4c0,2.6-3.4,6-6,6s-6-3.4-6-6a7.07,7.07,0,0,1,6-6A6.92,6.92,0,0,1,36.69,28.77Z"></path><path class="cls-1 XSRvLwSr_7" d="M29.89,30a3.9,3.9,0,1,0,6.2,4.6c1.5-2.4-.1-3.5-1.8-1.2-1.2,1.6-1.7,1.7-2.8.6s-1-1.6.5-2.6c.9-.7,1.7-1.6,1.7-2C33.69,28.37,31.19,28.67,29.89,30Z"></path><path class="cls-1 XSRvLwSr_8" d="M60.69,21.67a2.14,2.14,0,0,0,1,1.6c.6.3,1-.1,1-.9s-.4-1.6-1-1.6A1,1,0,0,0,60.69,21.67Z"></path><path class="cls-1 XSRvLwSr_9" d="M62.69,28.17c0,.9.5,1.6,1,1.6a.92.92,0,0,0,1-.9,1.9,1.9,0,0,0-1-1.6C63.19,27,62.69,27.37,62.69,28.17Z"></path><path class="cls-1 XSRvLwSr_10" d="M62.69,34.87c0,1.1.5,1.7,1,1.4a2.52,2.52,0,0,0,1-2.1c0-.8-.4-1.4-1-1.4S62.69,33.67,62.69,34.87Z"></path><path class="cls-1 XSRvLwSr_11" d="M61.69,41.27c0,.8.5,1.5,1,1.5s1-.7,1-1.5-.4-1.5-1-1.5S61.69,40.47,61.69,41.27Z"></path><path class="cls-1 XSRvLwSr_12" d="M23.29,47.37c-.9,2.2.3,3.2,1.4,1.4s1.2-3,.1-3C24.29,45.77,23.59,46.47,23.29,47.37Z"></path><path class="cls-1 XSRvLwSr_13" d="M39.69,46.47c0,1.4,1.9,3.8,2.5,3.2.8-.8-.5-3.9-1.6-3.9A.81.81,0,0,0,39.69,46.47Z"></path><path class="cls-1 XSRvLwSr_14" d="M59.19,46.87c-.4.6-.5,1.3-.2,1.6.7.7,2.7-.6,2.7-1.8S60,45.47,59.19,46.87Z"></path><path class="cls-1 XSRvLwSr_15" d="M31.69,50.27c0,1.9.5,3.5,1,3.5s1-1.6,1-3.5-.4-3.5-1-3.5S31.69,48.37,31.69,50.27Z"></path><path class="cls-1 XSRvLwSr_16" d="M55.69,52.27c-1,1.2-1,1.5.4,1.5a1.56,1.56,0,0,0,1.6-1.5c0-.8-.2-1.5-.4-1.5A6,6,0,0,0,55.69,52.27Z"></path><path class="cls-1 XSRvLwSr_17" d="M51.39,56.47c-1.2,1.2-.7,2.2.8,1.7.8-.4,1.5-1,1.5-1.5C53.69,55.57,52.29,55.47,51.39,56.47Z"></path><path class="cls-1 XSRvLwSr_18" d="M14.19,58.77a2.14,2.14,0,0,0,1.6,1,1,1,0,0,0,.9-1c0-.6-.7-1-1.6-1S13.89,58.17,14.19,58.77Z"></path><path class="cls-1 XSRvLwSr_19" d="M44.69,60.77c0,.5.7,1,1.5,1s1.5-.5,1.5-1-.7-1-1.5-1S44.69,60.17,44.69,60.77Z"></path><path class="cls-1 XSRvLwSr_20" d="M20.19,61.77a2.14,2.14,0,0,0,1.6,1,1,1,0,0,0,.9-1c0-.6-.7-1-1.6-1S19.89,61.17,20.19,61.77Z"></path><path class="cls-1 XSRvLwSr_21" d="M38.69,62.77c0,.5.7,1,1.5,1s1.5-.5,1.5-1-.7-1-1.5-1S38.69,62.17,38.69,62.77Z"></path><path class="cls-1 XSRvLwSr_22" d="M26.49,64c.9.9,1.5.9,2.4,0s.7-1.2-1.2-1.2S25.59,63.07,26.49,64Z"></path><path class="cls-1 XSRvLwSr_23" d="M32.69,63.77c0,.5.7,1,1.5,1s1.5-.5,1.5-1-.7-1-1.5-1S32.69,63.17,32.69,63.77Z"></path></g></g><style data-made-with="vivus-instant">.XSRvLwSr_0{stroke-dasharray:204 206;stroke-dashoffset:205;animation:XSRvLwSr_draw_0 8200ms linear 0ms infinite,XSRvLwSr_fade 8200ms linear 0ms infinite;}.XSRvLwSr_1{stroke-dasharray:16 18;stroke-dashoffset:17;animation:XSRvLwSr_draw_1 8200ms linear 0ms infinite,XSRvLwSr_fade 8200ms linear 0ms infinite;}.XSRvLwSr_2{stroke-dasharray:9 11;stroke-dashoffset:10;animation:XSRvLwSr_draw_2 8200ms linear 0ms infinite,XSRvLwSr_fade 8200ms linear 0ms infinite;}.XSRvLwSr_3{stroke-dasharray:11 13;stroke-dashoffset:12;animation:XSRvLwSr_draw_3 8200ms linear 0ms infinite,XSRvLwSr_fade 8200ms linear 0ms infinite;}.XSRvLwSr_4{stroke-dasharray:11 13;stroke-dashoffset:12;animation:XSRvLwSr_draw_4 8200ms linear 0ms infinite,XSRvLwSr_fade 8200ms linear 0ms infinite;}.XSRvLwSr_5{stroke-dasharray:192 194;stroke-dashoffset:193;animation:XSRvLwSr_draw_5 8200ms linear 0ms infinite,XSRvLwSr_fade 8200ms linear 0ms infinite;}.XSRvLwSr_6{stroke-dasharray:85 87;stroke-dashoffset:86;animation:XSRvLwSr_draw_6 8200ms linear 0ms infinite,XSRvLwSr_fade 8200ms linear 0ms infinite;}.XSRvLwSr_7{stroke-dasharray:33 35;stroke-dashoffset:34;animation:XSRvLwSr_draw_7 8200ms linear 0ms infinite,XSRvLwSr_fade 8200ms linear 0ms infinite;}.XSRvLwSr_8{stroke-dasharray:8 10;stroke-dashoffset:9;animation:XSRvLwSr_draw_8 8200ms linear 0ms infinite,XSRvLwSr_fade 8200ms linear 0ms infinite;}.XSRvLwSr_9{stroke-dasharray:8 10;stroke-dashoffset:9;animation:XSRvLwSr_draw_9 8200ms linear 0ms infinite,XSRvLwSr_fade 8200ms linear 0ms infinite;}.XSRvLwSr_10{stroke-dasharray:9 11;stroke-dashoffset:10;animation:XSRvLwSr_draw_10 8200ms linear 0ms infinite,XSRvLwSr_fade 8200ms linear 0ms infinite;}.XSRvLwSr_11{stroke-dasharray:8 10;stroke-dashoffset:9;animation:XSRvLwSr_draw_11 8200ms linear 0ms infinite,XSRvLwSr_fade 8200ms linear 0ms infinite;}.XSRvLwSr_12{stroke-dasharray:11 13;stroke-dashoffset:12;animation:XSRvLwSr_draw_12 8200ms linear 0ms infinite,XSRvLwSr_fade 8200ms linear 0ms infinite;}.XSRvLwSr_13{stroke-dasharray:11 13;stroke-dashoffset:12;animation:XSRvLwSr_draw_13 8200ms linear 0ms infinite,XSRvLwSr_fade 8200ms linear 0ms infinite;}.XSRvLwSr_14{stroke-dasharray:9 11;stroke-dashoffset:10;animation:XSRvLwSr_draw_14 8200ms linear 0ms infinite,XSRvLwSr_fade 8200ms linear 0ms infinite;}.XSRvLwSr_15{stroke-dasharray:16 18;stroke-dashoffset:17;animation:XSRvLwSr_draw_15 8200ms linear 0ms infinite,XSRvLwSr_fade 8200ms linear 0ms infinite;}.XSRvLwSr_16{stroke-dasharray:9 11;stroke-dashoffset:10;animation:XSRvLwSr_draw_16 8200ms linear 0ms infinite,XSRvLwSr_fade 8200ms linear 0ms infinite;}.XSRvLwSr_17{stroke-dasharray:9 11;stroke-dashoffset:10;animation:XSRvLwSr_draw_17 8200ms linear 0ms infinite,XSRvLwSr_fade 8200ms linear 0ms infinite;}.XSRvLwSr_18{stroke-dasharray:8 10;stroke-dashoffset:9;animation:XSRvLwSr_draw_18 8200ms linear 0ms infinite,XSRvLwSr_fade 8200ms linear 0ms infinite;}.XSRvLwSr_19{stroke-dasharray:8 10;stroke-dashoffset:9;animation:XSRvLwSr_draw_19 8200ms linear 0ms infinite,XSRvLwSr_fade 8200ms linear 0ms infinite;}.XSRvLwSr_20{stroke-dasharray:8 10;stroke-dashoffset:9;animation:XSRvLwSr_draw_20 8200ms linear 0ms infinite,XSRvLwSr_fade 8200ms linear 0ms infinite;}.XSRvLwSr_21{stroke-dasharray:8 10;stroke-dashoffset:9;animation:XSRvLwSr_draw_21 8200ms linear 0ms infinite,XSRvLwSr_fade 8200ms linear 0ms infinite;}.XSRvLwSr_22{stroke-dasharray:9 11;stroke-dashoffset:10;animation:XSRvLwSr_draw_22 8200ms linear 0ms infinite,XSRvLwSr_fade 8200ms linear 0ms infinite;}.XSRvLwSr_23{stroke-dasharray:8 10;stroke-dashoffset:9;animation:XSRvLwSr_draw_23 8200ms linear 0ms infinite,XSRvLwSr_fade 8200ms linear 0ms infinite;}@keyframes XSRvLwSr_draw{100%{stroke-dashoffset:0;}}@keyframes XSRvLwSr_fade{0%{stroke-opacity:1;}95.1219512195122%{stroke-opacity:1;}100%{stroke-opacity:0;}}@keyframes XSRvLwSr_draw_0{9.75609756097561%{stroke-dashoffset: 205}42.27642276422765%{ stroke-dashoffset: 0;}100%{ stroke-dashoffset: 0;}}@keyframes XSRvLwSr_draw_1{10.463061152350654%{stroke-dashoffset: 17}42.98338635560269%{ stroke-dashoffset: 0;}100%{ stroke-dashoffset: 0;}}@keyframes XSRvLwSr_draw_2{11.170024743725698%{stroke-dashoffset: 10}43.69034994697773%{ stroke-dashoffset: 0;}100%{ stroke-dashoffset: 0;}}@keyframes XSRvLwSr_draw_3{11.876988335100743%{stroke-dashoffset: 12}44.397313538352776%{ stroke-dashoffset: 0;}100%{ stroke-dashoffset: 0;}}@keyframes XSRvLwSr_draw_4{12.583951926475786%{stroke-dashoffset: 12}45.10427712972782%{ stroke-dashoffset: 0;}100%{ stroke-dashoffset: 0;}}@keyframes XSRvLwSr_draw_5{13.290915517850829%{stroke-dashoffset: 193}45.81124072110286%{ stroke-dashoffset: 0;}100%{ stroke-dashoffset: 0;}}@keyframes XSRvLwSr_draw_6{13.997879109225874%{stroke-dashoffset: 86}46.51820431247791%{ stroke-dashoffset: 0;}100%{ stroke-dashoffset: 0;}}@keyframes XSRvLwSr_draw_7{14.704842700600917%{stroke-dashoffset: 34}47.22516790385295%{ stroke-dashoffset: 0;}100%{ stroke-dashoffset: 0;}}@keyframes XSRvLwSr_draw_8{15.411806291975964%{stroke-dashoffset: 9}47.932131495228%{ stroke-dashoffset: 0;}100%{ stroke-dashoffset: 0;}}@keyframes XSRvLwSr_draw_9{16.118769883351007%{stroke-dashoffset: 9}48.63909508660304%{ stroke-dashoffset: 0;}100%{ stroke-dashoffset: 0;}}@keyframes XSRvLwSr_draw_10{16.82573347472605%{stroke-dashoffset: 10}49.346058677978085%{ stroke-dashoffset: 0;}100%{ stroke-dashoffset: 0;}}@keyframes XSRvLwSr_draw_11{17.532697066101093%{stroke-dashoffset: 9}50.05302226935313%{ stroke-dashoffset: 0;}100%{ stroke-dashoffset: 0;}}@keyframes XSRvLwSr_draw_12{18.23966065747614%{stroke-dashoffset: 12}50.75998586072817%{ stroke-dashoffset: 0;}100%{ stroke-dashoffset: 0;}}@keyframes XSRvLwSr_draw_13{18.946624248851183%{stroke-dashoffset: 12}51.466949452103215%{ stroke-dashoffset: 0;}100%{ stroke-dashoffset: 0;}}@keyframes XSRvLwSr_draw_14{19.653587840226226%{stroke-dashoffset: 10}52.17391304347827%{ stroke-dashoffset: 0;}100%{ stroke-dashoffset: 0;}}@keyframes XSRvLwSr_draw_15{20.36055143160127%{stroke-dashoffset: 17}52.8808766348533%{ stroke-dashoffset: 0;}100%{ stroke-dashoffset: 0;}}@keyframes XSRvLwSr_draw_16{21.067515022976316%{stroke-dashoffset: 10}53.58784022622836%{ stroke-dashoffset: 0;}100%{ stroke-dashoffset: 0;}}@keyframes XSRvLwSr_draw_17{21.77447861435136%{stroke-dashoffset: 10}54.29480381760339%{ stroke-dashoffset: 0;}100%{ stroke-dashoffset: 0;}}@keyframes XSRvLwSr_draw_18{22.481442205726403%{stroke-dashoffset: 9}55.00176740897844%{ stroke-dashoffset: 0;}100%{ stroke-dashoffset: 0;}}@keyframes XSRvLwSr_draw_19{23.18840579710145%{stroke-dashoffset: 9}55.70873100035348%{ stroke-dashoffset: 0;}100%{ stroke-dashoffset: 0;}}@keyframes XSRvLwSr_draw_20{23.895369388476492%{stroke-dashoffset: 9}56.415694591728524%{ stroke-dashoffset: 0;}100%{ stroke-dashoffset: 0;}}@keyframes XSRvLwSr_draw_21{24.60233297985154%{stroke-dashoffset: 9}57.12265818310357%{ stroke-dashoffset: 0;}100%{ stroke-dashoffset: 0;}}@keyframes XSRvLwSr_draw_22{25.309296571226582%{stroke-dashoffset: 10}57.82962177447861%{ stroke-dashoffset: 0;}100%{ stroke-dashoffset: 0;}}@keyframes XSRvLwSr_draw_23{26.016260162601622%{stroke-dashoffset: 9}58.536585365853654%{ stroke-dashoffset: 0;}100%{ stroke-dashoffset: 0;}}</style></svg>